<?xml version="1.0" standalone="no"?>
<!DOCTYPE svg PUBLIC "-//W3C//DTD SVG 20010904//EN"
 "http://www.w3.org/TR/2001/REC-SVG-20010904/DTD/svg10.dtd">
<svg version="1.0" xmlns="http://www.w3.org/2000/svg"
 width="250.000000pt" height="250.000000pt" viewBox="0 0 250.000000 250.000000"
 preserveAspectRatio="xMidYMid meet">
<metadata>
Created by potrace 1.14, written by Peter Selinger 2001-2017
</metadata>
<g transform="translate(0.000000,250.000000) scale(0.100000,-0.100000)"
fill="#000000" stroke="none">
<path d="M605 1665 c-48 -47 -27 -92 58 -121 50 -17 56 -24 32 -44 -13 -10
-23 -10 -55 3 -36 14 -40 14 -55 -3 -16 -17 -15 -19 12 -33 78 -41 163 -13
163 53 0 33 -34 65 -80 75 -40 9 -57 31 -33 43 13 7 28 6 51 -3 29 -13 33 -12
43 6 12 23 12 22 -18 38 -38 19 -91 14 -118 -14z"/>
<path d="M799 1606 c-2 -49 2 -110 7 -127 8 -27 48 -39 78 -24 15 8 26 10 26
4 0 -6 12 -9 28 -7 l27 3 1 88 c1 79 0 87 -17 87 -11 0 -22 1 -26 3 -5 1 -8
-26 -9 -61 -1 -70 -9 -84 -41 -71 -20 7 -23 15 -23 68 0 55 -2 59 -25 63 -22
5 -25 2 -26 -26z"/>
<path d="M1028 1632 c-16 -3 -18 -16 -18 -93 0 -88 0 -89 25 -89 28 0 27 -3
29 68 3 60 17 82 44 66 13 -9 17 -26 17 -70 0 -57 2 -59 28 -62 l27 -3 0 70
c0 38 -3 77 -6 86 -10 24 -49 36 -80 25 -15 -6 -31 -7 -38 -2 -6 5 -19 7 -28
4z"/>
<path d="M1317 1633 c-4 -3 -26 -6 -50 -5 l-43 2 -1 -90 -1 -90 28 0 c27 0 27
1 27 60 -1 67 13 91 41 74 12 -8 17 -26 18 -60 1 -27 2 -55 3 -61 1 -7 12 -13
26 -13 23 0 24 4 27 61 2 46 8 65 21 73 26 16 37 -7 37 -76 0 -55 1 -58 25
-58 14 0 26 6 26 13 4 38 -1 139 -6 148 -14 22 -56 30 -85 15 -16 -7 -32 -10
-37 -6 -13 12 -49 21 -56 13z"/>
<path d="M1595 1628 c-59 -31 -74 -107 -29 -152 15 -14 35 -27 45 -27 11 -1
25 -2 32 -3 24 -4 67 25 82 54 30 58 -11 126 -81 135 -16 2 -38 -1 -49 -7z
m73 -50 c19 -19 15 -66 -7 -78 -11 -5 -24 -10 -30 -10 -16 0 -41 30 -41 50 0
39 52 64 78 38z"/>
<path d="M1770 1544 l0 -94 29 0 c26 0 28 2 26 38 -3 50 10 81 38 91 21 8 27
28 18 59 -1 1 -9 -2 -19 -7 -11 -6 -33 -6 -55 -1 l-37 8 0 -94z"/>
<path d="M220 1130 l0 -120 25 0 c27 0 26 -4 27 110 0 131 0 130 -27 130 l-25
0 0 -120z"/>
<path d="M1669 1243 c-4 -27 -5 -210 -1 -221 3 -9 27 -12 87 -11 80 1 83 2 83
25 0 23 -4 24 -59 24 l-59 0 0 95 c0 95 0 95 -25 95 -14 0 -25 -3 -26 -7z"/>
<path d="M1824 1228 c1 -19 8 -24 37 -26 l37 -3 -2 -95 -1 -94 28 0 27 0 0 95
0 95 35 0 c31 0 35 3 35 25 0 25 0 25 -99 25 -96 0 -98 -1 -97 -22z"/>
<path d="M2061 1130 l2 -120 51 0 c59 0 110 13 129 32 57 57 45 158 -23 193
-17 9 -56 15 -95 15 l-65 0 1 -120z m144 50 c45 -50 8 -125 -59 -118 l-31 3 0
68 0 67 36 0 c23 0 42 -7 54 -20z"/>
<path d="M1259 1238 c0 -2 -2 -12 -4 -22 -2 -10 -9 -22 -15 -26 -12 -8 -10
-31 4 -42 5 -3 10 -32 11 -63 2 -63 13 -77 60 -73 23 2 31 9 33 26 3 18 -1 23
-15 20 -15 -2 -19 5 -21 45 -3 42 -1 47 18 47 16 0 21 5 18 23 -2 15 -9 21
-20 19 -13 -2 -18 4 -18 23 0 20 -5 25 -25 25 -14 0 -25 -1 -26 -2z"/>
<path d="M340 1191 c-12 -5 -15 -25 -15 -94 0 -88 0 -88 25 -85 23 3 25 8 30
68 4 53 8 65 24 68 27 5 36 -15 36 -80 0 -55 1 -58 25 -58 23 0 24 4 27 61 2
45 8 65 20 73 27 16 37 -2 39 -72 2 -58 4 -62 25 -62 13 0 25 5 25 10 6 43 4
120 -4 142 -10 33 -48 44 -86 25 -23 -12 -30 -11 -50 2 -18 11 -29 12 -51 4
-15 -6 -34 -7 -41 -3 -8 4 -21 5 -29 1z"/>
<path d="M656 1192 c-3 -3 -6 -58 -6 -123 l0 -117 28 7 c23 6 27 12 24 40 -3
30 -2 32 17 22 56 -30 121 9 121 73 0 75 -49 119 -109 98 -16 -6 -32 -8 -35
-4 -9 8 -34 11 -40 4z m124 -61 c16 -31 12 -49 -15 -67 -24 -16 -27 -16 -45 1
-34 31 -18 85 25 85 14 0 29 -8 35 -19z"/>
<path d="M921 1186 c-57 -32 -67 -102 -21 -148 28 -28 36 -30 78 -25 34 4 52
12 67 32 25 30 27 47 13 93 -16 52 -86 76 -137 48z m87 -61 c13 -29 7 -52 -18
-65 -42 -23 -78 17 -60 66 13 34 62 34 78 -1z"/>
<path d="M1119 1193 c-13 -3 -15 -20 -15 -91 1 -86 1 -87 26 -87 22 0 25 4 28
45 3 60 7 69 36 80 17 6 24 16 22 34 -1 29 -8 31 -39 15 -16 -9 -22 -9 -25 0
-4 11 -6 12 -33 4z"/>
<path d="M1420 1193 c-23 -9 -39 -36 -35 -58 2 -11 4 -23 4 -26 1 -4 19 -14
41 -23 22 -9 40 -20 40 -26 0 -13 -36 -13 -61 0 -15 9 -21 7 -26 -6 -14 -38
87 -62 121 -28 35 34 15 76 -48 103 -38 16 -22 36 17 22 22 -9 28 -7 37 8 8
16 5 21 -22 30 -34 12 -45 13 -68 4z"/>
</g>
</svg>
