<svg width="352" height="31" viewBox="0 0 352 31" fill="none" xmlns="http://www.w3.org/2000/svg">
<path d="M10.322 25.34C15.456 25.34 19.06 22.688 19.06 17.962C19.06 13.746 16.34 12.012 11.512 10.754C7.398 9.7 6.378 9.19 6.378 7.626C6.378 6.402 7.432 5.484 9.438 5.484C11.444 5.484 13.518 6.368 15.626 7.83L18.346 3.886C15.932 1.948 12.974 0.859999 9.506 0.859999C4.644 0.859999 1.176 3.716 1.176 8.034C1.176 12.828 4.27 14.154 9.064 15.378C13.042 16.398 13.858 17.078 13.858 18.404C13.858 19.866 12.566 20.716 10.424 20.716C7.704 20.716 5.46 19.594 3.318 17.826L0.224 21.532C3.08 24.082 6.718 25.34 10.322 25.34ZM29.112 25.34C31.73 25.34 33.26 23.946 34.45 22.416V25H39.618V6.776H34.45V16.942C34.45 19.39 33.192 20.648 31.22 20.648C29.248 20.648 28.092 19.39 28.092 16.942V6.776H22.924V18.574C22.924 22.756 25.202 25.34 29.112 25.34ZM44.2436 25H49.4116V14.834C49.4116 12.386 50.6696 11.128 52.6416 11.128C54.6136 11.128 55.7696 12.386 55.7696 14.834V25H60.9376V13.202C60.9376 9.02 58.6596 6.436 54.7496 6.436C52.1316 6.436 50.6016 7.83 49.4116 9.36V6.776H44.2436V25ZM65.4272 25H70.5952V14.834C70.5952 12.386 71.7852 11.128 73.7232 11.128C75.6612 11.128 76.7492 12.386 76.7492 14.834V25H81.9172V14.834C81.9172 12.386 83.1072 11.128 85.0452 11.128C86.9832 11.128 88.0712 12.386 88.0712 14.834V25H93.2392V13.134C93.2392 8.748 90.9272 6.436 87.0852 6.436C84.6032 6.436 82.6992 7.456 81.1012 9.326C80.1492 7.49 78.3472 6.436 75.9672 6.436C73.3492 6.436 71.7852 7.83 70.5952 9.36V6.776H65.4272V25ZM106.676 25.408C112.354 25.408 116.57 21.158 116.57 15.922C116.57 10.618 112.388 6.436 106.744 6.436C101.066 6.436 96.8499 10.686 96.8499 15.922C96.8499 21.226 101.032 25.408 106.676 25.408ZM106.744 20.954C103.888 20.954 101.95 18.608 101.95 15.922C101.95 13.168 103.718 10.89 106.676 10.89C109.532 10.89 111.47 13.236 111.47 15.922C111.47 18.676 109.702 20.954 106.744 20.954ZM120.312 25H125.48V18.268C125.48 13.916 127.588 11.842 131.022 11.842H131.294V6.436C128.234 6.3 126.534 7.932 125.48 10.448V6.776H120.312V25Z" fill="#1B5178"/>
<path d="M145.498 25H150.734V1.2H145.498V25ZM156.138 25H161.306V14.834C161.306 12.386 162.496 11.128 164.434 11.128C166.372 11.128 167.46 12.386 167.46 14.834V25H172.628V14.834C172.628 12.386 173.818 11.128 175.756 11.128C177.694 11.128 178.782 12.386 178.782 14.834V25H183.95V13.134C183.95 8.748 181.638 6.436 177.796 6.436C175.314 6.436 173.41 7.456 171.812 9.326C170.86 7.49 169.058 6.436 166.678 6.436C164.06 6.436 162.496 7.83 161.306 9.36V6.776H156.138V25ZM188.445 30.44H193.613V22.62C194.837 24.082 196.537 25.34 199.291 25.34C203.609 25.34 207.587 22.008 207.587 15.922C207.587 9.768 203.541 6.436 199.291 6.436C196.605 6.436 194.871 7.694 193.613 9.394V6.776H188.445V30.44ZM197.965 20.954C195.551 20.954 193.545 18.948 193.545 15.922C193.545 12.828 195.551 10.822 197.965 10.822C200.379 10.822 202.419 12.828 202.419 15.854C202.419 18.982 200.379 20.954 197.965 20.954ZM220.33 25.408C226.008 25.408 230.224 21.158 230.224 15.922C230.224 10.618 226.042 6.436 220.398 6.436C214.72 6.436 210.504 10.686 210.504 15.922C210.504 21.226 214.686 25.408 220.33 25.408ZM220.398 20.954C217.542 20.954 215.604 18.608 215.604 15.922C215.604 13.168 217.372 10.89 220.33 10.89C223.186 10.89 225.124 13.236 225.124 15.922C225.124 18.676 223.356 20.954 220.398 20.954ZM233.966 25H239.134V18.268C239.134 13.916 241.242 11.842 244.676 11.842H244.948V6.436C241.888 6.3 240.188 7.932 239.134 10.448V6.776H233.966V25ZM254.331 25.306C256.065 25.306 257.323 24.898 258.411 24.252V20.104C257.663 20.512 256.813 20.75 255.861 20.75C254.705 20.75 254.195 20.172 254.195 18.982V11.196H258.479V6.776H254.195V2.118H249.027V6.776H246.851V11.196H249.027V19.832C249.027 24.048 251.169 25.306 254.331 25.306ZM268.681 25.34C272.625 25.34 275.651 23.504 275.651 19.458C275.651 16.058 272.693 14.834 270.143 13.984C268.171 13.304 266.437 12.828 266.437 11.808C266.437 11.026 267.083 10.482 268.341 10.482C269.667 10.482 271.469 11.128 273.271 12.182L275.243 8.612C273.271 7.286 270.755 6.504 268.443 6.504C264.771 6.504 261.779 8.578 261.779 12.284C261.779 15.888 264.669 17.078 267.219 17.826C269.225 18.438 270.993 18.812 270.993 19.934C270.993 20.818 270.313 21.362 268.817 21.362C267.117 21.362 265.043 20.614 263.071 19.186L260.861 22.586C263.275 24.49 266.131 25.34 268.681 25.34ZM290.092 25H307.194V20.24H295.328V1.2H290.092V25ZM313.298 25H318.534V6.028H325.776V1.2H306.056V6.028H313.298V25ZM329.803 25H339.085C346.565 25 351.733 19.798 351.733 13.1C351.733 6.334 346.565 1.2 339.085 1.2H329.803V25ZM335.039 20.274V5.926H339.085C343.369 5.926 346.259 8.884 346.259 13.1C346.259 17.384 343.369 20.274 339.085 20.274H335.039Z" fill="#313131"/>
</svg>
